<mxfile host="app.diagrams.net" agent="Mozilla/5.0 (Macintosh; Intel Mac OS X 10_15_7) AppleWebKit/537.36 (KHTML, like Gecko) Chrome/133.0.0.0 Safari/537.36" version="26.0.16">
  <diagram name="Page-1" id="jKAgsO_ZvQ79sudGL69J">
    <mxGraphModel dx="1512" dy="1147" grid="0" gridSize="10" guides="1" tooltips="1" connect="1" arrows="1" fold="1" page="0" pageScale="1" pageWidth="827" pageHeight="1169" math="0" shadow="0">
      <root>
        <mxCell id="0" />
        <mxCell id="1" parent="0" />
        <mxCell id="RqW7skZVHyt86GYjT8uR-1" value="App" style="rounded=0;whiteSpace=wrap;html=1;" vertex="1" parent="1">
          <mxGeometry x="-317" y="-248" width="188" height="121" as="geometry" />
        </mxCell>
        <mxCell id="RqW7skZVHyt86GYjT8uR-2" value="Layout&lt;div&gt;&lt;br&gt;&lt;/div&gt;" style="rounded=0;whiteSpace=wrap;html=1;" vertex="1" parent="1">
          <mxGeometry x="-424" y="-41" width="175" height="145" as="geometry" />
        </mxCell>
        <mxCell id="RqW7skZVHyt86GYjT8uR-3" value="CandidatesPage" style="rounded=0;whiteSpace=wrap;html=1;" vertex="1" parent="1">
          <mxGeometry x="-483" y="148" width="157" height="132" as="geometry" />
        </mxCell>
        <mxCell id="RqW7skZVHyt86GYjT8uR-4" value="RecruitersPage" style="rounded=0;whiteSpace=wrap;html=1;" vertex="1" parent="1">
          <mxGeometry x="-311" y="148" width="160" height="132" as="geometry" />
        </mxCell>
        <mxCell id="RqW7skZVHyt86GYjT8uR-5" value="CandidateId" style="rounded=0;whiteSpace=wrap;html=1;" vertex="1" parent="1">
          <mxGeometry x="-136" y="148" width="163" height="131" as="geometry" />
        </mxCell>
        <mxCell id="RqW7skZVHyt86GYjT8uR-6" value="&lt;div style=&quot;font-size: 12px;&quot;&gt;- Redux Provider&lt;/div&gt;&lt;div style=&quot;font-size: 12px;&quot;&gt;&lt;span style=&quot;background-color: transparent; color: light-dark(rgb(0, 0, 0), rgb(255, 255, 255));&quot;&gt;- i18n Provider&lt;/span&gt;&lt;/div&gt;" style="text;strokeColor=none;fillColor=none;html=1;align=center;verticalAlign=middle;whiteSpace=wrap;rounded=0;fontSize=16;" vertex="1" parent="1">
          <mxGeometry x="-415" y="61" width="135" height="30" as="geometry" />
        </mxCell>
        <mxCell id="RqW7skZVHyt86GYjT8uR-8" value="&lt;div style=&quot;font-size: 12px;&quot;&gt;- Form&lt;/div&gt;" style="text;strokeColor=none;fillColor=none;html=1;align=center;verticalAlign=middle;whiteSpace=wrap;rounded=0;fontSize=16;" vertex="1" parent="1">
          <mxGeometry x="-480" y="231" width="62" height="30" as="geometry" />
        </mxCell>
        <mxCell id="RqW7skZVHyt86GYjT8uR-9" value="&lt;div style=&quot;font-size: 12px;&quot;&gt;- Candidates list&lt;/div&gt;" style="text;strokeColor=none;fillColor=none;html=1;align=center;verticalAlign=middle;whiteSpace=wrap;rounded=0;fontSize=16;" vertex="1" parent="1">
          <mxGeometry x="-301" y="231" width="105" height="30" as="geometry" />
        </mxCell>
        <mxCell id="RqW7skZVHyt86GYjT8uR-51" value="&lt;div style=&quot;font-size: 12px;&quot;&gt;- Candidate Informations&lt;/div&gt;" style="text;strokeColor=none;fillColor=none;html=1;align=center;verticalAlign=middle;whiteSpace=wrap;rounded=0;fontSize=16;" vertex="1" parent="1">
          <mxGeometry x="-131" y="231" width="147" height="30" as="geometry" />
        </mxCell>
        <mxCell id="RqW7skZVHyt86GYjT8uR-52" value="&lt;div&gt;Theme&lt;/div&gt;" style="rounded=0;whiteSpace=wrap;html=1;" vertex="1" parent="1">
          <mxGeometry x="-223" y="-41" width="175" height="145" as="geometry" />
        </mxCell>
        <mxCell id="RqW7skZVHyt86GYjT8uR-53" value="&lt;div style=&quot;font-size: 12px;&quot;&gt;- global.css&lt;/div&gt;" style="text;strokeColor=none;fillColor=none;html=1;align=center;verticalAlign=middle;whiteSpace=wrap;rounded=0;fontSize=16;" vertex="1" parent="1">
          <mxGeometry x="-207" y="61" width="100" height="30" as="geometry" />
        </mxCell>
        <mxCell id="RqW7skZVHyt86GYjT8uR-54" value="Redux Store" style="rounded=0;whiteSpace=wrap;html=1;" vertex="1" parent="1">
          <mxGeometry x="-406" y="350" width="157" height="132" as="geometry" />
        </mxCell>
        <mxCell id="RqW7skZVHyt86GYjT8uR-55" value="&lt;div style=&quot;font-size: 12px;&quot;&gt;- SetCandidates&lt;/div&gt;" style="text;strokeColor=none;fillColor=none;html=1;align=center;verticalAlign=middle;whiteSpace=wrap;rounded=0;fontSize=16;" vertex="1" parent="1">
          <mxGeometry x="-399" y="434" width="113" height="18" as="geometry" />
        </mxCell>
        <mxCell id="RqW7skZVHyt86GYjT8uR-56" value="&lt;div style=&quot;font-size: 12px;&quot;&gt;- addCandidate&lt;/div&gt;" style="text;strokeColor=none;fillColor=none;html=1;align=center;verticalAlign=middle;whiteSpace=wrap;rounded=0;fontSize=16;" vertex="1" parent="1">
          <mxGeometry x="-399" y="454" width="113" height="18" as="geometry" />
        </mxCell>
        <mxCell id="RqW7skZVHyt86GYjT8uR-61" value="" style="endArrow=classic;html=1;rounded=0;fontSize=12;startSize=8;endSize=8;curved=1;entryX=0.36;entryY=0;entryDx=0;entryDy=0;entryPerimeter=0;exitX=0.16;exitY=1;exitDx=0;exitDy=0;exitPerimeter=0;" edge="1" parent="1">
          <mxGeometry width="50" height="50" relative="1" as="geometry">
            <mxPoint x="-242.92000000000007" y="-127" as="sourcePoint" />
            <mxPoint x="-317" y="-41" as="targetPoint" />
          </mxGeometry>
        </mxCell>
        <mxCell id="RqW7skZVHyt86GYjT8uR-62" value="" style="endArrow=classic;html=1;rounded=0;fontSize=12;startSize=8;endSize=8;curved=1;entryX=0.429;entryY=0.007;entryDx=0;entryDy=0;entryPerimeter=0;exitX=0.16;exitY=1;exitDx=0;exitDy=0;exitPerimeter=0;" edge="1" parent="1" target="RqW7skZVHyt86GYjT8uR-52">
          <mxGeometry width="50" height="50" relative="1" as="geometry">
            <mxPoint x="-214" y="-125" as="sourcePoint" />
            <mxPoint x="-288" y="-39" as="targetPoint" />
          </mxGeometry>
        </mxCell>
        <mxCell id="RqW7skZVHyt86GYjT8uR-63" value="" style="endArrow=classic;html=1;rounded=0;fontSize=12;startSize=8;endSize=8;curved=1;exitX=0.383;exitY=1;exitDx=0;exitDy=0;exitPerimeter=0;" edge="1" parent="1" source="RqW7skZVHyt86GYjT8uR-2">
          <mxGeometry width="50" height="50" relative="1" as="geometry">
            <mxPoint x="-383.4600000000001" y="104" as="sourcePoint" />
            <mxPoint x="-425.54" y="148" as="targetPoint" />
          </mxGeometry>
        </mxCell>
        <mxCell id="RqW7skZVHyt86GYjT8uR-64" value="" style="endArrow=classic;html=1;rounded=0;fontSize=12;startSize=8;endSize=8;curved=1;entryX=0.463;entryY=0.023;entryDx=0;entryDy=0;entryPerimeter=0;exitX=0.16;exitY=1;exitDx=0;exitDy=0;exitPerimeter=0;" edge="1" parent="1">
          <mxGeometry width="50" height="50" relative="1" as="geometry">
            <mxPoint x="-339.00000000000006" y="104" as="sourcePoint" />
            <mxPoint x="-258.9200000000001" y="151.03600000000006" as="targetPoint" />
          </mxGeometry>
        </mxCell>
        <mxCell id="RqW7skZVHyt86GYjT8uR-65" value="" style="endArrow=classic;html=1;rounded=0;fontSize=12;startSize=8;endSize=8;curved=1;entryX=0.387;entryY=0;entryDx=0;entryDy=0;entryPerimeter=0;exitX=0.16;exitY=1;exitDx=0;exitDy=0;exitPerimeter=0;" edge="1" parent="1" target="RqW7skZVHyt86GYjT8uR-5">
          <mxGeometry width="50" height="50" relative="1" as="geometry">
            <mxPoint x="-311.00000000000006" y="104" as="sourcePoint" />
            <mxPoint x="-117.11800000000001" y="149.048" as="targetPoint" />
          </mxGeometry>
        </mxCell>
        <mxCell id="RqW7skZVHyt86GYjT8uR-66" value="" style="endArrow=classic;html=1;rounded=0;fontSize=12;startSize=8;endSize=8;curved=1;exitX=0.383;exitY=1;exitDx=0;exitDy=0;exitPerimeter=0;entryX=0.701;entryY=0.008;entryDx=0;entryDy=0;entryPerimeter=0;" edge="1" parent="1" target="RqW7skZVHyt86GYjT8uR-3">
          <mxGeometry width="50" height="50" relative="1" as="geometry">
            <mxPoint x="-170.46" y="104" as="sourcePoint" />
            <mxPoint x="-239.00000000000003" y="148" as="targetPoint" />
          </mxGeometry>
        </mxCell>
        <mxCell id="RqW7skZVHyt86GYjT8uR-67" value="" style="endArrow=classic;html=1;rounded=0;fontSize=12;startSize=8;endSize=8;curved=1;exitX=0.383;exitY=1;exitDx=0;exitDy=0;exitPerimeter=0;" edge="1" parent="1">
          <mxGeometry width="50" height="50" relative="1" as="geometry">
            <mxPoint x="-143.46" y="104" as="sourcePoint" />
            <mxPoint x="-212.00000000000003" y="148" as="targetPoint" />
          </mxGeometry>
        </mxCell>
        <mxCell id="RqW7skZVHyt86GYjT8uR-68" value="" style="endArrow=classic;html=1;rounded=0;fontSize=12;startSize=8;endSize=8;curved=1;exitX=0.383;exitY=1;exitDx=0;exitDy=0;exitPerimeter=0;entryX=0.546;entryY=0.008;entryDx=0;entryDy=0;entryPerimeter=0;" edge="1" parent="1" target="RqW7skZVHyt86GYjT8uR-5">
          <mxGeometry width="50" height="50" relative="1" as="geometry">
            <mxPoint x="-101.22999999999999" y="104" as="sourcePoint" />
            <mxPoint x="-169.77" y="148" as="targetPoint" />
          </mxGeometry>
        </mxCell>
        <mxCell id="RqW7skZVHyt86GYjT8uR-69" value="" style="curved=1;endArrow=classic;html=1;rounded=0;fontSize=12;startSize=8;endSize=8;entryX=0;entryY=0.432;entryDx=0;entryDy=0;entryPerimeter=0;exitX=0.25;exitY=1;exitDx=0;exitDy=0;" edge="1" parent="1" source="RqW7skZVHyt86GYjT8uR-3" target="RqW7skZVHyt86GYjT8uR-54">
          <mxGeometry width="50" height="50" relative="1" as="geometry">
            <mxPoint x="-546" y="330" as="sourcePoint" />
            <mxPoint x="-496" y="280" as="targetPoint" />
            <Array as="points">
              <mxPoint x="-496" y="330" />
              <mxPoint x="-411" y="323" />
            </Array>
          </mxGeometry>
        </mxCell>
        <mxCell id="RqW7skZVHyt86GYjT8uR-71" value="" style="endArrow=classic;html=1;rounded=0;fontSize=12;startSize=8;endSize=8;curved=1;entryX=0.5;entryY=0;entryDx=0;entryDy=0;exitX=0.16;exitY=1;exitDx=0;exitDy=0;exitPerimeter=0;" edge="1" parent="1" target="RqW7skZVHyt86GYjT8uR-54">
          <mxGeometry width="50" height="50" relative="1" as="geometry">
            <mxPoint x="-249.00000000000006" y="279" as="sourcePoint" />
            <mxPoint x="-323.08" y="365" as="targetPoint" />
          </mxGeometry>
        </mxCell>
        <mxCell id="RqW7skZVHyt86GYjT8uR-73" value="" style="curved=1;endArrow=classic;html=1;rounded=0;fontSize=12;startSize=8;endSize=8;entryX=1;entryY=0.568;entryDx=0;entryDy=0;entryPerimeter=0;exitX=0.25;exitY=1;exitDx=0;exitDy=0;" edge="1" parent="1" target="RqW7skZVHyt86GYjT8uR-54">
          <mxGeometry width="50" height="50" relative="1" as="geometry">
            <mxPoint x="-67" y="280" as="sourcePoint" />
            <mxPoint x="-29" y="407" as="targetPoint" />
            <Array as="points">
              <mxPoint x="-119" y="330" />
              <mxPoint x="-34" y="323" />
            </Array>
          </mxGeometry>
        </mxCell>
        <mxCell id="RqW7skZVHyt86GYjT8uR-74" value="&lt;div style=&quot;font-size: 12px;&quot;&gt;- Router&lt;/div&gt;" style="text;strokeColor=none;fillColor=none;html=1;align=center;verticalAlign=middle;whiteSpace=wrap;rounded=0;fontSize=16;" vertex="1" parent="1">
          <mxGeometry x="-311" y="-168" width="100" height="30" as="geometry" />
        </mxCell>
      </root>
    </mxGraphModel>
  </diagram>
</mxfile>
